HIERARCHY
ROOT Hips
{
    OFFSET 0.0 0.0 0.0
    CHANNELS 6 Xposition Yposition Zposition Zrotation Xrotation Yrotation
    JOINT LeftHipJoint
    {
        OFFSET 0.1 0.0 0.0
        CHANNELS 3 Zrotation Xrotation Yrotation
        JOINT LeftUpLeg
        {
            OFFSET 127.31882550928006 0.0 0.0
            CHANNELS 3 Zrotation Xrotation Yrotation
            JOINT LeftLeg
            {
                OFFSET 0.0 0.0 -410.8742091185896
                CHANNELS 3 Zrotation Xrotation Yrotation
                JOINT LeftFoot
                {
                    OFFSET 0.0 0.0 -395.76344125478533
                    CHANNELS 3 Zrotation Xrotation Yrotation
                    End Site
                    {
                        OFFSET 0.0 -0.1 0.0
                    }
                }
            }
        }
    }
    JOINT LowerBack
    {
        OFFSET 0.0 0.0 0.1
        CHANNELS 3 Zrotation Xrotation Yrotation
        JOINT Spine
        {
            OFFSET 0.0 0.0 222.01939265308653
            CHANNELS 3 Zrotation Xrotation Yrotation
            JOINT Spine1
            {
                OFFSET 0.0 0.0 252.11843737311563
                CHANNELS 3 Zrotation Xrotation Yrotation
                JOINT LeftShoulder
                {
                    OFFSET 0.1 0.0 0.0
                    CHANNELS 3 Zrotation Xrotation Yrotation
                    JOINT LeftArm
                    {
                        OFFSET 139.48556158913323 0.0 0.0
                        CHANNELS 3 Zrotation Xrotation Yrotation
                        JOINT LeftForeArm
                        {
                            OFFSET 267.6820995948571 0.0 0.0
                            CHANNELS 3 Zrotation Xrotation Yrotation
                            JOINT LeftHand
                            {
                                OFFSET 233.97892127156223 0.0 0.0
                                CHANNELS 3 Zrotation Xrotation Yrotation
                                End Site
                                {
                                    OFFSET 0.1 0.0 0.0
                                }
                            }
                        }
                    }
                }
                JOINT Neck
                {
                    OFFSET 0.0 0.0 0.1
                    CHANNELS 3 Zrotation Xrotation Yrotation
                    JOINT Neck1
                    {
                        OFFSET 0.0 0.0 106.24073839215588
                        CHANNELS 3 Zrotation Xrotation Yrotation
                        End Site
                        {
                            OFFSET 0.0 0.0 112.98140346578505
                        }
                    }
                }
                JOINT RightShoulder
                {
                    OFFSET -0.1 0.0 0.0
                    CHANNELS 3 Zrotation Xrotation Yrotation
                    JOINT RightArm
                    {
                        OFFSET -139.48556158913323 0.0 0.0
                        CHANNELS 3 Zrotation Xrotation Yrotation
                        JOINT RightForeArm
                        {
                            OFFSET -267.6820995948571 0.0 0.0
                            CHANNELS 3 Zrotation Xrotation Yrotation
                            JOINT RightHand
                            {
                                OFFSET -233.97892127156223 0.0 0.0
                                CHANNELS 3 Zrotation Xrotation Yrotation
                                End Site
                                {
                                    OFFSET -0.1 0.0 0.0
                                }
                            }
                        }
                    }
                }
            }
        }
    }
    JOINT RightHipJoint
    {
        OFFSET -0.1 0.0 0.0
        CHANNELS 3 Zrotation Xrotation Yrotation
        JOINT RightUpLeg
        {
            OFFSET -127.31882550928006 0.0 0.0
            CHANNELS 3 Zrotation Xrotation Yrotation
            JOINT RightLeg
            {
                OFFSET 0.0 0.0 -410.8742091185896
                CHANNELS 3 Zrotation Xrotation Yrotation
                JOINT RightFoot
                {
                    OFFSET 0.0 0.0 -395.76344125478533
                    CHANNELS 3 Zrotation Xrotation Yrotation
                    End Site
                    {
                        OFFSET 0.0 -0.1 0.0
                    }
                }
            }
        }
    }
}
MOTION
Frames: 5
Frame Time: 0.03333333333333333
0.0 0.0 797.5192486283686 23.727713461746113 9.92686496441462 0.049009112903295265 1.1034765745125397e-32 1.5902773407317584e-15 -7.951386703658792e-16 -0.4980282779937268 -31.30302013225598 1.368984491504838 1.1665271779854671 26.555875838259936 1.848808122806255 0.0 0.0 2.981770013872047e-16 1.1034765745125397e-32 1.5902773407317584e-15 -7.951386703658792e-16 0.11279211539196513 7.77690979549412 0.7206693516808858 -2.913440740563971 -7.610308528665836e-15 -1.7843219625126275e-15 -3.1805546814635168e-15 -3.1805546814635168e-15 -7.951386703658792e-16 -15.268453059347296 4.712181959632079 73.06114356085872 -34.5255267903164 9.76971852994984e-15 -2.3400551144956677e-14 0.0 0.0 2.3854160110976376e-15 -3.1805546814635168e-15 -3.1805546814635168e-15 -7.951386703658792e-16 -1.5878408277807072 5.2533974545036655 -3.8454072088682376 -3.1805546814635168e-15 -3.1805546814635168e-15 -7.951386703658792e-16 19.051180611734015 9.5924984351498 -75.98955029643176 28.196449272037096 -4.2468579098144174e-15 -3.852397196503766e-15 3.1805546814635168e-15 -8.827812596100317e-32 -3.1805546814635168e-15 1.1034765745125397e-32 1.5902773407317584e-15 -7.951386703658792e-16 -0.47918816567612155 -29.909736389295787 -2.661819016578054 -0.9774522129041306 29.799597443893706 1.430795588002382 0.0 0.0 0.0
0.0 0.0 797.5192486283686 23.68169571045967 9.886040663436958 0.03261208648951908 0.0 0.0 -3.975693351829396e-16 -0.49772677332306564 -31.059340906172547 1.4453977820644817 1.1919177019411897 26.251457291151684 1.8088476879535724 -3.1805546814635168e-15 1.6552148617688095e-32 -5.963540027744094e-16 0.0 0.0 -3.975693351829396e-16 0.1139941880670408 7.789058698521528 0.8279736107878034 -2.838079838954824 -9.936185171185968e-16 -2.4613902074213504e-17 -2.2069531490250793e-32 -3.1805546814635176e-15 -7.951386703658794e-16 -15.078197684133153 4.991972896891688 72.9857999688148 -35.048391529089905 6.724302842093317e-15 -1.6976527129333983e-16 0.0 0.0 3.1805546814635168e-15 -2.2069531490250793e-32 -3.1805546814635176e-15 -7.951386703658794e-16 -1.5794488059410003 5.3166804581568305 -3.8854660722045744 -2.2069531490250793e-32 -3.1805546814635176e-15 -7.951386703658794e-16 19.346320698561474 9.764450683459161 -75.96626858287442 28.150987092169636 5.027824096482338e-15 2.0052903687745953e-14 3.1805546814635168e-15 4.4139062980501586e-32 1.5902773407317584e-15 0.0 0.0 -3.975693351829396e-16 -0.4818749933596149 -29.82505414636079 -2.544087852142381 -0.9064511248402173 29.8259716438296 1.3733031734133587 0.0 0.0 0.0
0.0 0.0 797.5192486283686 23.577750776261983 9.978038277391798 0.07472945164870182 1.7241821476758432e-34 -4.969616689786745e-17 3.975693351829396e-16 -0.47793483701455397 -30.994957270465473 1.3717483476104138 1.1256039307097827 26.014296006575307 1.948716160972239 0.0 0.0 9.93923337957349e-17 1.7241821476758432e-34 -4.969616689786745e-17 3.975693351829396e-16 0.10918549464065512 7.747092292194072 1.0100240429848601 -2.7454429386412995 2.332988895285596e-15 -1.9325117010264453e-15 0.0 0.0 7.951386703658792e-16 -14.94035581513651 5.633345919828105 72.78863694389976 -36.063083323118434 -2.0398352175307144e-15 -4.0088562519602035e-15 0.0 0.0 1.1927080055488188e-15 0.0 0.0 7.951386703658792e-16 -1.67381499556599 5.355239654280906 -4.0452286705380684 0.0 0.0 7.951386703658792e-16 19.652591269945276 10.10228959286992 -76.01651909614377 28.245309251398105 7.31314685954371e-15 -1.0039212432152398e-14 3.1805546814635168e-15 4.4139062980501586e-32 1.5902773407317584e-15 1.7241821476758432e-34 -4.969616689786745e-17 3.975693351829396e-16 -0.4673636239234043 -29.990951906901866 -2.4902986249757655 -0.8965532861452304 29.867915006981637 1.3488878030037437 0.0 0.0 0.0
0.0 0.0 797.5192486283686 23.444806821462137 10.022517703760952 0.12177103274735299 0.0 0.0 -3.975693351829396e-16 -0.4865189182799296 -30.84946750347745 1.3489001793795181 1.108436537478494 25.689132178160683 1.9979747642007648 0.0 0.0 -1.987846675914698e-16 0.0 0.0 -3.975693351829396e-16 0.11280791060502195 7.817468703545915 1.1571541235604497 -2.585195665341677 -1.0833548004496033e-16 3.952260569074303e-16 0.0 0.0 -7.951386703658792e-16 -14.704044146409736 6.089395005528135 72.59459056557411 -37.142289896294386 -2.1106780961542263e-15 -1.1194348033650388e-14 0.0 0.0 1.987846675914698e-16 0.0 0.0 -7.951386703658792e-16 -1.867084373759682 5.320400551859301 -4.19036994487795 0.0 0.0 -7.951386703658792e-16 20.05550649991352 10.188987960519373 -75.92076980217357 28.23131295560877 1.1950239660839454e-14 -4.644954615216002e-15 0.0 0.0 3.1805546814635168e-15 0.0 0.0 -3.975693351829396e-16 -0.47968906789215854 -30.05730262709405 -2.4253217476584132 -0.8477149614133699 29.912919461890798 1.242336222114467 0.0 0.0 0.0
0.0 0.0 797.5192486283686 23.360421514080763 10.16207543314069 0.19339536626329265 0.0 0.0 0.0 -0.5728891104509953 -30.750919785407742 1.2390102082128798 1.1163266886866219 25.258013573464908 2.1082812612628414 0.0 0.0 9.93923337957349e-17 0.0 0.0 0.0 0.1330223225685099 7.808690644625438 1.2274261658898056 -2.464943097444364 -1.1411240985466772e-15 -2.4105181443451613e-15 0.0 0.0 0.0 -14.229276846837479 6.321290128651636 72.40576606124296 -38.29560699933128 -2.0239169630833166e-15 9.80675362917491e-16 0.0 0.0 1.3914926731402886e-15 0.0 0.0 0.0 -2.1860943505584736 5.235041771554181 -4.280155252569323 0.0 0.0 0.0 20.188044594291576 10.234277179554585 -75.75871075793009 28.24027420377375 -1.2337833868199945e-14 3.1036598958600884e-15 3.1805546814635168e-15 4.4139062980501586e-32 1.5902773407317584e-15 0.0 0.0 0.0 -0.5688973789562041 -30.206473313184826 -2.396866636725858 -0.7347682887006116 30.016386300582507 1.1364087733574413 0.0 0.0 3.975693351829396e-16
